# xmcd CD database file
#
# Track frame offsets:
#	225
#	20945
#	37945
#	54368
#	70964
#	89155
#	105929
#	126674
#	150981
#	169982
#	185725
#	205759
#	233889
#	251270
#	271320
#	293958
#	312070
#
# Disc length: 4414 seconds
#
# Revision: 2
# Processed by: cddbd v1.4b41PL1 Copyright (c) Steve Scherf et al.
# Submitted via: Feurio! 1.60 - http://www.feurio.com
#
DISCID=e8113b11,f3113b11
DTITLE=Various Artist - Golden PoP Ballads Vol. 9
DYEAR=1900
DGENRE=
TTITLE0=Celine Dion - Because You Loved Me
TTITLE1=Eros Ramazzotti - Un Cuore Con Le Ali
TTITLE2=Me and My - Waiting
TTITLE3=Color Me Badd - The Earth, The Sun, The Rain
TTITLE4=Gabrielle - Give Me A Little More Time
TTITLE5=Take That - How Deep Is Your Love
TTITLE6=Lenny Kravitz - Can´t Get You Out Of My Mind
TTITLE7=3T - Anything
TTITLE8=John Secada and Shanice - If I Never Knew You
TTITLE9=Mariah Carey - Open Arms
TTITLE10=The Tony Rich Project - Nobody Knows
TTITLE11=Tina Turner and Sting - On Silent Wings
TTITLE12=Blessid Union Of Souls - I Believe
TTITLE13=Backstreet Boys - I´ll Never Break Your Heart
TTITLE14=Lionel Richie - Don´t Wanna Lose You
TTITLE15=Mylene Farmer - California
TTITLE16=Aleandro Baldi and Marco Guerzoni - Soli Al Bar
EXTD=
EXTT0=
EXTT1=
EXTT2=
EXTT3=
EXTT4=
EXTT5=
EXTT6=
EXTT7=
EXTT8=
EXTT9=
EXTT10=
EXTT11=
EXTT12=
EXTT13=
EXTT14=
EXTT15=
EXTT16=
PLAYORDER=
